<svg width="65" height="64" viewBox="0 0 65 64" fill="none" xmlns="http://www.w3.org/2000/svg">
<path opacity="0.3" d="M9.03339 15.7839L45.5667 8.05053C46.9 7.78386 48.5 8.58399 48.7667 10.184L51.7001 24.0505L9.03339 15.7839Z" fill="#008060"/>
<path opacity="0.3" d="M35.1667 37.1172C35.1667 32.5839 38.6334 29.1172 43.1667 29.1172H56.5C58.1 29.1172 59.1667 30.1839 59.1667 31.7839V42.4505C59.1667 44.0505 58.1 45.1172 56.5 45.1172H43.1667C38.6334 45.1172 35.1667 41.6505 35.1667 37.1172ZM43.1667 33.1172C41.0334 33.1172 39.1667 34.9839 39.1667 37.1172C39.1667 39.2505 41.0334 41.1172 43.1667 41.1172C45.3 41.1172 47.1667 39.2505 47.1667 37.1172C47.1667 34.9839 45.3 33.1172 43.1667 33.1172Z" fill="#008060"/>
<path d="M35.1666 37.1171C35.1666 32.5838 38.6333 29.1171 43.1666 29.1171H56.5V21.1171C56.5 18.1838 54.1 15.7838 51.1666 15.7838H8.49998C6.89998 15.7838 5.83331 16.8505 5.83331 18.4505V55.7838C5.83331 57.3838 6.89998 58.4505 8.49998 58.4505H51.1666C54.1 58.4505 56.5 56.0505 56.5 53.1171V45.1171H43.1666C38.6333 45.1171 35.1666 41.6505 35.1666 37.1171Z" fill="#008060"/>
</svg>
