<svg width="65" height="64" viewBox="0 0 65 64" fill="none" xmlns="http://www.w3.org/2000/svg">
<path opacity="0.3" d="M56.5 48.8001V10.6666H53.8333H13.8333C12.2333 10.6666 11.1667 11.7333 11.1667 13.3333V53.3333C29.5667 53.3333 45.0333 41.6 51.1667 25.3333V48.8001C49.5667 49.6001 48.5 51.4666 48.5 53.3333C48.5 56.2666 50.9 58.6666 53.8333 58.6666C56.7667 58.6666 59.1667 56.2666 59.1667 53.3333C59.1667 51.4666 58.1 49.6001 56.5 48.8001Z" fill="#008060"/>
<path d="M59.1667 10.6666C59.1667 7.73331 56.7667 5.33331 53.8333 5.33331C50.9 5.33331 48.5 7.73331 48.5 10.6666C48.5 12.5333 49.5667 14.1332 50.9 15.1998C48.7667 33.5999 34.1 48.5334 15.7 50.4C14.6334 49.0667 13.0333 48 11.1667 48C8.23334 48 5.83334 50.4 5.83334 53.3333C5.83334 56.2666 8.23334 58.6666 11.1667 58.6666C13.3 58.6666 14.9 57.6 15.9666 55.7334C37.3 53.6 54.1 36.5334 56.2333 15.4668C58.1 14.4001 59.1667 12.8 59.1667 10.6666Z" fill="#008060"/>
</svg>
